<svg id="agronomy" xmlns="http://www.w3.org/2000/svg" width="48.918" height="48.918" viewBox="0 0 48.918 48.918">
  <g id="Group_2" data-name="Group 2" transform="translate(13.816 6.202)">
    <g id="Group_1" data-name="Group 1">
      <path id="Path_40" data-name="Path 40" d="M165.533,83.769a.956.956,0,0,0-.589-.629,6.791,6.791,0,0,0-1.26-.295,8.118,8.118,0,0,0,1.849-7.969.955.955,0,0,0-.589-.629,8.223,8.223,0,0,0-5.138.054,8.583,8.583,0,0,0,.238-2.041,8.115,8.115,0,0,0-4.332-7.23.955.955,0,0,0-.861-.028,8.086,8.086,0,0,0-4.388,7.259A8.582,8.582,0,0,0,150.7,74.3a8.222,8.222,0,0,0-5.149-.058.956.956,0,0,0-.589.629,8.118,8.118,0,0,0,1.849,7.969,6.792,6.792,0,0,0-1.261.295.956.956,0,0,0-.589.629,8.116,8.116,0,0,0,2.049,8.176,7.928,7.928,0,0,0,5.735,2.415,8.546,8.546,0,0,0,1.538-.14v6.252a.955.955,0,1,0,1.911,0V94.217a8.559,8.559,0,0,0,1.551.142,7.929,7.929,0,0,0,5.735-2.415A8.116,8.116,0,0,0,165.533,83.769Zm-11.246,7.473a6.368,6.368,0,0,1-.14,1.06,6.3,6.3,0,0,1-7.484-7.489,6.406,6.406,0,0,1,3.283.155q.137.051.273.1a6.263,6.263,0,0,1,2.221,1.456,6.091,6.091,0,0,1,1.849,4.083Zm0-8.892a6.365,6.365,0,0,1-.14,1.06,6.349,6.349,0,0,1-3.217-.128q-.207-.08-.412-.146a6.309,6.309,0,0,1-2.153-1.434,6.161,6.161,0,0,1-1.7-5.78,6.2,6.2,0,0,1,5.776,1.708l.04.042q.126.141.252.27a6.05,6.05,0,0,1,1.557,3.771Zm.969-4.794a6.5,6.5,0,0,1-1.169-.966c-.045-.049-.09-.1-.136-.147a6.1,6.1,0,0,1-1.576-4.182,6.167,6.167,0,0,1,2.875-5.293,6.161,6.161,0,0,1,2.885,5.293,6.094,6.094,0,0,1-1.43,4.021c-.155.155-.3.311-.436.469A6.415,6.415,0,0,1,155.255,77.555Zm.948,4.484a6.048,6.048,0,0,1,1.477-4c.141-.14.282-.29.422-.452a6.166,6.166,0,0,1,5.733-1.669,6.161,6.161,0,0,1-1.7,5.782,6.31,6.31,0,0,1-2.149,1.433q-.208.067-.419.148a6.347,6.347,0,0,1-3.213.127,6.414,6.414,0,0,1-.148-1.346C156.2,82.055,156.2,82.047,156.2,82.039Zm5.929,8.554a6.167,6.167,0,0,1-5.779,1.709,6.2,6.2,0,0,1,1.707-5.782,6.308,6.308,0,0,1,2.155-1.435q.2-.066.411-.145a6.351,6.351,0,0,1,3.21-.13A6.161,6.161,0,0,1,162.132,90.593Z" transform="translate(-144.606 -64.913)" fill="#fff"/>
    </g>
  </g>
  <g id="Group_4" data-name="Group 4" transform="translate(0)">
    <g id="Group_3" data-name="Group 3">
      <path id="Path_41" data-name="Path 41" d="M29.557.532A24.624,24.624,0,0,0,24.459,0,24.459,24.459,0,0,0,5.169,39.5a3.626,3.626,0,1,0,1.425-1.281A22.558,22.558,0,0,1,29.161,2.4a.955.955,0,1,0,.4-1.869ZM7.006,40.245a1.72,1.72,0,1,1-.5,1.216A1.714,1.714,0,0,1,7.006,40.245Z" transform="translate(0)" fill="#fff"/>
    </g>
  </g>
  <g id="Group_6" data-name="Group 6" transform="translate(19.353 3.827)">
    <g id="Group_5" data-name="Group 5">
      <path id="Path_42" data-name="Path 42" d="M226.953,45.647a3.626,3.626,0,1,0-1.425,1.281,22.558,22.558,0,0,1-21.848,35.953.955.955,0,0,0-.335,1.881,24.688,24.688,0,0,0,4.318.38,24.459,24.459,0,0,0,19.291-39.5Zm-1.837-.749a1.72,1.72,0,1,1,.5-1.216A1.708,1.708,0,0,1,225.116,44.9Z" transform="translate(-202.556 -40.051)" fill="#fff"/>
    </g>
  </g>
  <g id="Group_8" data-name="Group 8" transform="translate(14.748 45.322)">
    <g id="Group_7" data-name="Group 7">
      <path id="Path_43" data-name="Path 43" d="M155.672,474.431l-.361.885.358-.886a.955.955,0,0,0-.716,1.772l.03.012a.955.955,0,0,0,.689-1.782Z" transform="translate(-154.355 -474.36)" fill="#fff"/>
    </g>
  </g>
  <g id="Group_10" data-name="Group 10" transform="translate(32.287 1.696)">
    <g id="Group_9" data-name="Group 9">
      <path id="Path_44" data-name="Path 44" d="M339.256,17.829l-.017-.007a.955.955,0,1,0-.71,1.774l.011,0a.955.955,0,0,0,.716-1.772Z" transform="translate(-337.929 -17.754)" fill="#fff"/>
    </g>
  </g>
</svg>
