<svg id="fields" xmlns="http://www.w3.org/2000/svg" width="48.918" height="48.918" viewBox="0 0 48.918 48.918">
  <path id="Path_38" data-name="Path 38" d="M216,6.688A6.688,6.688,0,1,0,222.688,0,6.7,6.7,0,0,0,216,6.688Zm6.688-4.777a4.777,4.777,0,1,1-4.777,4.777A4.783,4.783,0,0,1,222.688,1.911Z" transform="translate(-195.363)" fill="#fff"/>
  <path id="Path_39" data-name="Path 39" d="M47.963,96c-7.55,0-11.48,3.778-15.281,7.433-.379.365-.769.739-1.16,1.107a30.32,30.32,0,0,1-9.914-2.376.955.955,0,1,0-.729,1.766,32.388,32.388,0,0,0,8.7,2.346,15.9,15.9,0,0,1-10.856,4.055H1.911V97.924a29.572,29.572,0,0,1,11.134,2.457.955.955,0,0,0,.736-1.763A31.461,31.461,0,0,0,.955,96,.956.956,0,0,0,0,96.955v37.835a.956.956,0,0,0,.955.955H47.963a.956.956,0,0,0,.955-.955V96.955A.956.956,0,0,0,47.963,96Zm-.955,24.4-5.954-8.154h5.954Zm-13-15.587c3.513-3.377,6.84-6.576,13-6.876v12.4H26.972A30.022,30.022,0,0,0,34.007,104.81Zm-2.969,29.025L28.4,112.242h4.182l8.075,21.593Zm-22.781,0,8.075-21.593h4.182l-2.633,21.593Zm14.182-21.593h4.041l2.633,21.593H19.806Zm-20.528,0H7.865L1.911,120.4Zm0,11.395,8.32-11.395h4.061L6.216,133.835H1.911Zm40.791,10.2-8.075-21.593h4.061l8.32,11.395v10.2Z" transform="translate(0 -86.828)" fill="#fff"/>
  <ellipse id="Ellipse_2" data-name="Ellipse 2" cx="1" cy="1.5" rx="1" ry="1.5" transform="translate(16.458 13)" fill="#fff"/>
</svg>
